<svg id="visual" viewBox="0 0 900 600" width="900" height="600" xmlns="http://www.w3.org/2000/svg" xmlns:xlink="http://www.w3.org/1999/xlink" version="1.1"><rect x="0" y="0" width="900" height="600" fill="#FFFFFF"></rect><defs><linearGradient id="grad1_0" x1="33.3%" y1="0%" x2="100%" y2="100%"><stop offset="20%" stop-color="#fbae3c" stop-opacity="1"></stop><stop offset="80%" stop-color="#fbae3c" stop-opacity="1"></stop></linearGradient></defs><defs><linearGradient id="grad1_1" x1="33.3%" y1="0%" x2="100%" y2="100%"><stop offset="20%" stop-color="#fbae3c" stop-opacity="1"></stop><stop offset="80%" stop-color="#ffffff" stop-opacity="1"></stop></linearGradient></defs><defs><linearGradient id="grad2_0" x1="0%" y1="0%" x2="66.7%" y2="100%"><stop offset="20%" stop-color="#fbae3c" stop-opacity="1"></stop><stop offset="80%" stop-color="#fbae3c" stop-opacity="1"></stop></linearGradient></defs><defs><linearGradient id="grad2_1" x1="0%" y1="0%" x2="66.7%" y2="100%"><stop offset="20%" stop-color="#ffffff" stop-opacity="1"></stop><stop offset="80%" stop-color="#fbae3c" stop-opacity="1"></stop></linearGradient></defs><g transform="translate(900, 0)"><path d="M0 378.6C-20.7 370.2 -41.5 361.8 -63.2 358.5C-84.9 355.1 -107.6 356.9 -128.3 352.4C-148.9 347.9 -167.6 337.2 -189.3 327.9C-211 318.6 -235.9 310.7 -239.8 285.7C-243.7 260.8 -226.6 218.6 -241.3 202.5C-256 186.3 -302.4 196.1 -320.4 185C-338.4 173.9 -327.9 142 -323.3 117.7C-318.6 93.3 -319.7 76.5 -329.9 58.2C-340.1 39.8 -359.3 19.9 -378.6 0L0 0Z" fill="#ffd69f"></path><path d="M0 189.3C-10.4 185.1 -20.7 180.9 -31.6 179.2C-42.5 177.6 -53.8 178.4 -64.1 176.2C-74.5 173.9 -83.8 168.6 -94.6 163.9C-105.5 159.3 -117.9 155.4 -119.9 142.9C-121.8 130.4 -113.3 109.3 -120.7 101.2C-128 93.2 -151.2 98 -160.2 92.5C-169.2 87 -164 71 -161.6 58.8C-159.3 46.7 -159.9 38.3 -165 29.1C-170.1 19.9 -179.7 10 -189.3 0L0 0Z" fill="#fbae3c"></path></g><g transform="translate(0, 600)"><path d="M0 -378.6C18.8 -362.4 37.6 -346.1 61.3 -347.6C85 -349.1 113.7 -368.4 129.5 -355.8C145.2 -343.1 148 -298.6 160 -277.1C172 -255.6 193.1 -257.2 210.2 -250.5C227.3 -243.8 240.5 -228.9 257.4 -216C274.3 -203 295 -192 302.2 -174.5C309.5 -157 303.3 -132.8 313.9 -114.2C324.4 -95.6 351.8 -82.5 365.4 -64.4C378.9 -46.3 378.8 -23.2 378.6 0L0 0Z" fill="#ffd69f"></path><path d="M0 -189.3C9.4 -181.2 18.8 -173.1 30.6 -173.8C42.5 -174.6 56.9 -184.2 64.7 -177.9C72.6 -171.6 74 -149.3 80 -138.6C86 -127.8 96.5 -128.6 105.1 -125.2C113.7 -121.9 120.2 -114.5 128.7 -108C137.2 -101.5 147.5 -96 151.1 -87.3C154.7 -78.5 151.6 -66.4 156.9 -57.1C162.2 -47.8 175.9 -41.3 182.7 -32.2C189.5 -23.2 189.4 -11.6 189.3 0L0 0Z" fill="#fbae3c"></path></g></svg>