<svg id="visual" viewBox="0 0 900 450" width="900" height="450" xmlns="http://www.w3.org/2000/svg" xmlns:xlink="http://www.w3.org/1999/xlink" version="1.1"><rect x="0" y="0" width="900" height="450" fill="#ebebeb"></rect><path d="M0 308L21.5 305.3C43 302.7 86 297.3 128.8 305.5C171.7 313.7 214.3 335.3 257.2 343C300 350.7 343 344.3 385.8 334.5C428.7 324.7 471.3 311.3 514.2 295.7C557 280 600 262 642.8 259.2C685.7 256.3 728.3 268.7 771.2 286C814 303.3 857 325.7 878.5 336.8L900 348L900 451L878.5 451C857 451 814 451 771.2 451C728.3 451 685.7 451 642.8 451C600 451 557 451 514.2 451C471.3 451 428.7 451 385.8 451C343 451 300 451 257.2 451C214.3 451 171.7 451 128.8 451C86 451 43 451 21.5 451L0 451Z" fill="#FA7268"></path></svg>