<svg id="visual" viewBox="0 0 900 450" width="900" height="450" xmlns="http://www.w3.org/2000/svg" xmlns:xlink="http://www.w3.org/1999/xlink" version="1.1"><rect x="0" y="0" width="900" height="450" fill="#ebebeb"></rect><path d="M0 428L8.3 427.5C16.7 427 33.3 426 50 422.3C66.7 418.7 83.3 412.3 100 406.5C116.7 400.7 133.3 395.3 150 384.3C166.7 373.3 183.3 356.7 200 350.8C216.7 345 233.3 350 250 364C266.7 378 283.3 401 300 400.2C316.7 399.3 333.3 374.7 350 370C366.7 365.3 383.3 380.7 400 386C416.7 391.3 433.3 386.7 450 382.2C466.7 377.7 483.3 373.3 500 373.7C516.7 374 533.3 379 550 388C566.7 397 583.3 410 600 414.8C616.7 419.7 633.3 416.3 650 401.5C666.7 386.7 683.3 360.3 700 351.3C716.7 342.3 733.3 350.7 750 358.3C766.7 366 783.3 373 800 378.7C816.7 384.3 833.3 388.7 850 383C866.7 377.3 883.3 361.7 891.7 353.8L900 346L900 451L891.7 451C883.3 451 866.7 451 850 451C833.3 451 816.7 451 800 451C783.3 451 766.7 451 750 451C733.3 451 716.7 451 700 451C683.3 451 666.7 451 650 451C633.3 451 616.7 451 600 451C583.3 451 566.7 451 550 451C533.3 451 516.7 451 500 451C483.3 451 466.7 451 450 451C433.3 451 416.7 451 400 451C383.3 451 366.7 451 350 451C333.3 451 316.7 451 300 451C283.3 451 266.7 451 250 451C233.3 451 216.7 451 200 451C183.3 451 166.7 451 150 451C133.3 451 116.7 451 100 451C83.3 451 66.7 451 50 451C33.3 451 16.7 451 8.3 451L0 451Z" fill="#F7770F" stroke-linecap="round" stroke-linejoin="miter"></path></svg>