<svg id="visual" viewBox="0 0 900 600" width="900" height="600" xmlns="http://www.w3.org/2000/svg" xmlns:xlink="http://www.w3.org/1999/xlink" version="1.1"><path d="M0 49L25 53C50 57 100 65 150 62C200 59 250 45 300 44C350 43 400 55 450 60C500 65 550 63 600 56C650 49 700 37 750 34C800 31 850 37 875 40L900 43L900 0L875 0C850 0 800 0 750 0C700 0 650 0 600 0C550 0 500 0 450 0C400 0 350 0 300 0C250 0 200 0 150 0C100 0 50 0 25 0L0 0Z" fill="#4260e8"></path><path d="M0 97L25 100C50 103 100 109 150 102C200 95 250 75 300 70C350 65 400 75 450 83C500 91 550 97 600 91C650 85 700 67 750 61C800 55 850 61 875 64L900 67L900 41L875 38C850 35 800 29 750 32C700 35 650 47 600 54C550 61 500 63 450 58C400 53 350 41 300 42C250 43 200 57 150 60C100 63 50 55 25 51L0 47Z" fill="#8789f0"></path><path d="M0 121L25 127C50 133 100 145 150 140C200 135 250 113 300 103C350 93 400 95 450 100C500 105 550 113 600 107C650 101 700 81 750 75C800 69 850 77 875 81L900 85L900 65L875 62C850 59 800 53 750 59C700 65 650 83 600 89C550 95 500 89 450 81C400 73 350 63 300 68C250 73 200 93 150 100C100 107 50 101 25 98L0 95Z" fill="#b9b5f6"></path><path d="M0 157L25 160C50 163 100 169 150 165C200 161 250 147 300 139C350 131 400 129 450 134C500 139 550 151 600 145C650 139 700 115 750 110C800 105 850 119 875 126L900 133L900 83L875 79C850 75 800 67 750 73C700 79 650 99 600 105C550 111 500 103 450 98C400 93 350 91 300 101C250 111 200 133 150 138C100 143 50 131 25 125L0 119Z" fill="#e6e3fc"></path><path d="M0 241L25 249C50 257 100 273 150 282C200 291 250 293 300 277C350 261 400 227 450 227C500 227 550 261 600 270C650 279 700 263 750 271C800 279 850 311 875 327L900 343L900 131L875 124C850 117 800 103 750 108C700 113 650 137 600 143C550 149 500 137 450 132C400 127 350 129 300 137C250 145 200 159 150 163C100 167 50 161 25 158L0 155Z" fill="#ffffff"></path><path d="M0 325L25 328C50 331 100 337 150 348C200 359 250 375 300 364C350 353 400 315 450 313C500 311 550 345 600 361C650 377 700 375 750 377C800 379 850 385 875 388L900 391L900 341L875 325C850 309 800 277 750 269C700 261 650 277 600 268C550 259 500 225 450 225C400 225 350 259 300 275C250 291 200 289 150 280C100 271 50 255 25 247L0 239Z" fill="#ffffff"></path><path d="M0 349L25 354C50 359 100 369 150 379C200 389 250 399 300 386C350 373 400 337 450 335C500 333 550 365 600 382C650 399 700 401 750 407C800 413 850 423 875 428L900 433L900 389L875 386C850 383 800 377 750 375C700 373 650 375 600 359C550 343 500 309 450 311C400 313 350 351 300 362C250 373 200 357 150 346C100 335 50 329 25 326L0 323Z" fill="#e6e3fc"></path><path d="M0 505L25 504C50 503 100 501 150 497C200 493 250 487 300 479C350 471 400 461 450 463C500 465 550 479 600 489C650 499 700 505 750 509C800 513 850 515 875 516L900 517L900 431L875 426C850 421 800 411 750 405C700 399 650 397 600 380C550 363 500 331 450 333C400 335 350 371 300 384C250 397 200 387 150 377C100 367 50 357 25 352L0 347Z" fill="#b9b5f6"></path><path d="M0 553L25 555C50 557 100 561 150 560C200 559 250 553 300 549C350 545 400 543 450 547C500 551 550 561 600 563C650 565 700 559 750 558C800 557 850 561 875 563L900 565L900 515L875 514C850 513 800 511 750 507C700 503 650 497 600 487C550 477 500 463 450 461C400 459 350 469 300 477C250 485 200 491 150 495C100 499 50 501 25 502L0 503Z" fill="#8789f0"></path><path d="M0 601L25 601C50 601 100 601 150 601C200 601 250 601 300 601C350 601 400 601 450 601C500 601 550 601 600 601C650 601 700 601 750 601C800 601 850 601 875 601L900 601L900 563L875 561C850 559 800 555 750 556C700 557 650 563 600 561C550 559 500 549 450 545C400 541 350 543 300 547C250 551 200 557 150 558C100 559 50 555 25 553L0 551Z" fill="#4260e8"></path></svg>