<svg id="visual" viewBox="0 0 900 600" width="900" height="600" xmlns="http://www.w3.org/2000/svg" xmlns:xlink="http://www.w3.org/1999/xlink" version="1.1"><rect x="0" y="0" width="900" height="600" fill="#FFFFFF"></rect><path d="M0 333L21.5 314.3C43 295.7 86 258.3 128.8 269.7C171.7 281 214.3 341 257.2 368.3C300 395.7 343 390.3 385.8 377.8C428.7 365.3 471.3 345.7 514.2 314.7C557 283.7 600 241.3 642.8 241.7C685.7 242 728.3 285 771.2 306.7C814 328.3 857 328.7 878.5 328.8L900 329L900 601L878.5 601C857 601 814 601 771.2 601C728.3 601 685.7 601 642.8 601C600 601 557 601 514.2 601C471.3 601 428.7 601 385.8 601C343 601 300 601 257.2 601C214.3 601 171.7 601 128.8 601C86 601 43 601 21.5 601L0 601Z" fill="#fa7268"></path><path d="M0 343L21.5 356.2C43 369.3 86 395.7 128.8 387.7C171.7 379.7 214.3 337.3 257.2 342.5C300 347.7 343 400.3 385.8 410.5C428.7 420.7 471.3 388.3 514.2 383.3C557 378.3 600 400.7 642.8 397.2C685.7 393.7 728.3 364.3 771.2 339.3C814 314.3 857 293.7 878.5 283.3L900 273L900 601L878.5 601C857 601 814 601 771.2 601C728.3 601 685.7 601 642.8 601C600 601 557 601 514.2 601C471.3 601 428.7 601 385.8 601C343 601 300 601 257.2 601C214.3 601 171.7 601 128.8 601C86 601 43 601 21.5 601L0 601Z" fill="#e34c67"></path><path d="M0 410L21.5 425C43 440 86 470 128.8 464.8C171.7 459.7 214.3 419.3 257.2 410.7C300 402 343 425 385.8 421.8C428.7 418.7 471.3 389.3 514.2 406.5C557 423.7 600 487.3 642.8 501.7C685.7 516 728.3 481 771.2 475.3C814 469.7 857 493.3 878.5 505.2L900 517L900 601L878.5 601C857 601 814 601 771.2 601C728.3 601 685.7 601 642.8 601C600 601 557 601 514.2 601C471.3 601 428.7 601 385.8 601C343 601 300 601 257.2 601C214.3 601 171.7 601 128.8 601C86 601 43 601 21.5 601L0 601Z" fill="#c62368"></path></svg>