<svg id="visual" viewBox="0 0 900 450" width="900" height="450" xmlns="http://www.w3.org/2000/svg" xmlns:xlink="http://www.w3.org/1999/xlink" version="1.1"><rect x="0" y="0" width="900" height="450" fill="#001220"></rect><path d="M0 307L21.5 311.8C43 316.7 86 326.3 128.8 322.8C171.7 319.3 214.3 302.7 257.2 291.7C300 280.7 343 275.3 385.8 280C428.7 284.7 471.3 299.3 514.2 304C557 308.7 600 303.3 642.8 300.3C685.7 297.3 728.3 296.7 771.2 299.8C814 303 857 310 878.5 313.5L900 317L900 451L878.5 451C857 451 814 451 771.2 451C728.3 451 685.7 451 642.8 451C600 451 557 451 514.2 451C471.3 451 428.7 451 385.8 451C343 451 300 451 257.2 451C214.3 451 171.7 451 128.8 451C86 451 43 451 21.5 451L0 451Z" fill="#fa7268"></path><path d="M0 329L21.5 332.3C43 335.7 86 342.3 128.8 345.3C171.7 348.3 214.3 347.7 257.2 344.7C300 341.7 343 336.3 385.8 329C428.7 321.7 471.3 312.3 514.2 312.3C557 312.3 600 321.7 642.8 327C685.7 332.3 728.3 333.7 771.2 327.7C814 321.7 857 308.3 878.5 301.7L900 295L900 451L878.5 451C857 451 814 451 771.2 451C728.3 451 685.7 451 642.8 451C600 451 557 451 514.2 451C471.3 451 428.7 451 385.8 451C343 451 300 451 257.2 451C214.3 451 171.7 451 128.8 451C86 451 43 451 21.5 451L0 451Z" fill="#ef5f67"></path><path d="M0 365L21.5 359.3C43 353.7 86 342.3 128.8 337.3C171.7 332.3 214.3 333.7 257.2 342.2C300 350.7 343 366.3 385.8 373.3C428.7 380.3 471.3 378.7 514.2 370.2C557 361.7 600 346.3 642.8 343.2C685.7 340 728.3 349 771.2 355.8C814 362.7 857 367.3 878.5 369.7L900 372L900 451L878.5 451C857 451 814 451 771.2 451C728.3 451 685.7 451 642.8 451C600 451 557 451 514.2 451C471.3 451 428.7 451 385.8 451C343 451 300 451 257.2 451C214.3 451 171.7 451 128.8 451C86 451 43 451 21.5 451L0 451Z" fill="#e34c67"></path><path d="M0 373L21.5 376.2C43 379.3 86 385.7 128.8 385.7C171.7 385.7 214.3 379.3 257.2 374.8C300 370.3 343 367.7 385.8 373.2C428.7 378.7 471.3 392.3 514.2 394.5C557 396.7 600 387.3 642.8 381.3C685.7 375.3 728.3 372.7 771.2 371.7C814 370.7 857 371.3 878.5 371.7L900 372L900 451L878.5 451C857 451 814 451 771.2 451C728.3 451 685.7 451 642.8 451C600 451 557 451 514.2 451C471.3 451 428.7 451 385.8 451C343 451 300 451 257.2 451C214.3 451 171.7 451 128.8 451C86 451 43 451 21.5 451L0 451Z" fill="#d53867"></path><path d="M0 418L21.5 418.2C43 418.3 86 418.7 128.8 420.5C171.7 422.3 214.3 425.7 257.2 425.7C300 425.7 343 422.3 385.8 416.7C428.7 411 471.3 403 514.2 401.8C557 400.7 600 406.3 642.8 406.5C685.7 406.7 728.3 401.3 771.2 398.5C814 395.7 857 395.3 878.5 395.2L900 395L900 451L878.5 451C857 451 814 451 771.2 451C728.3 451 685.7 451 642.8 451C600 451 557 451 514.2 451C471.3 451 428.7 451 385.8 451C343 451 300 451 257.2 451C214.3 451 171.7 451 128.8 451C86 451 43 451 21.5 451L0 451Z" fill="#c62368"></path></svg>