<svg id="visual" viewBox="0 0 900 450" width="900" height="450" xmlns="http://www.w3.org/2000/svg" xmlns:xlink="http://www.w3.org/1999/xlink" version="1.1"><rect x="0" y="0" width="900" height="450" fill="#ebebeb"></rect><path d="M0 151L21.5 149.7C43 148.3 86 145.7 128.8 153.3C171.7 161 214.3 179 257.2 191.7C300 204.3 343 211.7 385.8 207.8C428.7 204 471.3 189 514.2 192.8C557 196.7 600 219.3 642.8 226C685.7 232.7 728.3 223.3 771.2 208.5C814 193.7 857 173.3 878.5 163.2L900 153L900 0L878.5 0C857 0 814 0 771.2 0C728.3 0 685.7 0 642.8 0C600 0 557 0 514.2 0C471.3 0 428.7 0 385.8 0C343 0 300 0 257.2 0C214.3 0 171.7 0 128.8 0C86 0 43 0 21.5 0L0 0Z" fill="#a14ff7"></path><path d="M0 68L21.5 76.7C43 85.3 86 102.7 128.8 111.2C171.7 119.7 214.3 119.3 257.2 115C300 110.7 343 102.3 385.8 101.3C428.7 100.3 471.3 106.7 514.2 102.8C557 99 600 85 642.8 77.3C685.7 69.7 728.3 68.3 771.2 67.7C814 67 857 67 878.5 67L900 67L900 0L878.5 0C857 0 814 0 771.2 0C728.3 0 685.7 0 642.8 0C600 0 557 0 514.2 0C471.3 0 428.7 0 385.8 0C343 0 300 0 257.2 0C214.3 0 171.7 0 128.8 0C86 0 43 0 21.5 0L0 0Z" fill="#6924c7"></path></svg>