<svg id="visual" viewBox="0 0 900 450" width="900" height="450" xmlns="http://www.w3.org/2000/svg" xmlns:xlink="http://www.w3.org/1999/xlink" version="1.1"><rect x="0" y="0" width="900" height="450" fill="#FFFFFF"></rect><path d="M0 243L21.5 238C43 233 86 223 128.8 216.5C171.7 210 214.3 207 257.2 208.3C300 209.7 343 215.3 385.8 228.7C428.7 242 471.3 263 514.2 264C557 265 600 246 642.8 244.2C685.7 242.3 728.3 257.7 771.2 255.7C814 253.7 857 234.3 878.5 224.7L900 215L900 451L878.5 451C857 451 814 451 771.2 451C728.3 451 685.7 451 642.8 451C600 451 557 451 514.2 451C471.3 451 428.7 451 385.8 451C343 451 300 451 257.2 451C214.3 451 171.7 451 128.8 451C86 451 43 451 21.5 451L0 451Z" fill="#fa7268"></path><path d="M0 346L21.5 340.7C43 335.3 86 324.7 128.8 326.5C171.7 328.3 214.3 342.7 257.2 340.3C300 338 343 319 385.8 305.3C428.7 291.7 471.3 283.3 514.2 290.7C557 298 600 321 642.8 322.8C685.7 324.7 728.3 305.3 771.2 305.3C814 305.3 857 324.7 878.5 334.3L900 344L900 451L878.5 451C857 451 814 451 771.2 451C728.3 451 685.7 451 642.8 451C600 451 557 451 514.2 451C471.3 451 428.7 451 385.8 451C343 451 300 451 257.2 451C214.3 451 171.7 451 128.8 451C86 451 43 451 21.5 451L0 451Z" fill="#e34c67"></path><path d="M0 406L21.5 393.7C43 381.3 86 356.7 128.8 350.3C171.7 344 214.3 356 257.2 366.3C300 376.7 343 385.3 385.8 380.5C428.7 375.7 471.3 357.3 514.2 357.8C557 358.3 600 377.7 642.8 380.8C685.7 384 728.3 371 771.2 366.8C814 362.7 857 367.3 878.5 369.7L900 372L900 451L878.5 451C857 451 814 451 771.2 451C728.3 451 685.7 451 642.8 451C600 451 557 451 514.2 451C471.3 451 428.7 451 385.8 451C343 451 300 451 257.2 451C214.3 451 171.7 451 128.8 451C86 451 43 451 21.5 451L0 451Z" fill="#c62368"></path></svg>